<svg fill="none" height="20" viewBox="0 0 20 20" width="20" xmlns="http://www.w3.org/2000/svg"><g fill="#212121"><path d="m11.5 7.5c0 .82843-.6716 1.5-1.5 1.5-.82843 0-1.5-.67157-1.5-1.5s.67157-1.5 1.5-1.5c.8284 0 1.5.67157 1.5 1.5z"/><path d="m7 10.75v.25c0 1.1046.89543 2 2 2h2c1.1046 0 2-.8954 2-2v-.25c0-.4142-.3358-.75-.75-.75h-4.5c-.41421 0-.75.3358-.75.75z"/><path d="m4 4v12c0 1.1046.89543 2 2 2h9.5c.2761 0 .5-.2239.5-.5s-.2239-.5-.5-.5h-9.5c-.55228 0-1-.4477-1-1h10c.5523 0 1-.4477 1-1v-11c0-1.10457-.8954-2-2-2h-8c-1.10457 0-2 .89543-2 2zm10-1c.5523 0 1 .44772 1 1v11h-10v-11c0-.55228.44772-1 1-1z"/></g></svg>